<?xml version="1.0" encoding="UTF-8" standalone="no"?>
<svg
   xmlns:dc="http://purl.org/dc/elements/1.1/"
   xmlns:cc="http://creativecommons.org/ns#"
   xmlns:rdf="http://www.w3.org/1999/02/22-rdf-syntax-ns#"
   xmlns:svg="http://www.w3.org/2000/svg"
   xmlns="http://www.w3.org/2000/svg"
   xmlns:sodipodi="http://sodipodi.sourceforge.net/DTD/sodipodi-0.dtd"
   xmlns:inkscape="http://www.inkscape.org/namespaces/inkscape"
   width="512"
   height="512"
   viewBox="0 0 512 512"
   version="1.1"
   id="svg45"
   sodipodi:docname="logo.svg"
   style="fill:none"
   inkscape:version="0.92.4 5da689c313, 2019-01-14"
   inkscape:export-filename="/home/nebulon/projects/yellowtent/apps/onlyoffice-app/logo.png"
   inkscape:export-xdpi="96"
   inkscape:export-ydpi="96">
  <metadata
     id="metadata49">
    <rdf:RDF>
      <cc:Work
         rdf:about="">
        <dc:format>image/svg+xml</dc:format>
        <dc:type
           rdf:resource="http://purl.org/dc/dcmitype/StillImage" />
        <dc:title></dc:title>
      </cc:Work>
    </rdf:RDF>
  </metadata>
  <sodipodi:namedview
     pagecolor="#ffffff"
     bordercolor="#666666"
     borderopacity="1"
     objecttolerance="10"
     gridtolerance="10"
     guidetolerance="10"
     inkscape:pageopacity="0"
     inkscape:pageshadow="2"
     inkscape:window-width="1920"
     inkscape:window-height="1052"
     id="namedview47"
     showgrid="false"
     inkscape:zoom="0.70718232"
     inkscape:cx="382.52819"
     inkscape:cy="402.9265"
     inkscape:window-x="0"
     inkscape:window-y="28"
     inkscape:window-maximized="1"
     inkscape:current-layer="svg45" />
  <g
     id="g5133"
     transform="translate(6.7648867,-28.097679)">
    <path
       style="clip-rule:evenodd;fill:url(#paint0_linear);fill-rule:evenodd;stroke-width:13.81224155"
       inkscape:connector-curvature="0"
       id="path2"
       d="M 218.181,506.41231 13.680127,412.53188 c -17.4204272,-8.19618 -17.4204272,-20.86201 0,-28.31233 l 71.196721,-32.78474 132.547242,61.09707 c 17.42,8.19618 45.44504,8.19618 62.10813,0 l 132.54642,-61.09707 71.19658,32.78474 c 17.42,8.1948 17.42,20.86201 0,28.31233 l -204.50129,93.88043 c -15.9048,7.45032 -43.92984,7.45032 -60.59293,0 z" />
    <path
       style="clip-rule:evenodd;fill:url(#paint1_linear);fill-rule:evenodd;stroke-width:13.81224155"
       inkscape:connector-curvature="0"
       id="path4"
       d="M 218.181,390.92401 13.680127,297.04358 c -17.4204272,-8.19618 -17.4204272,-20.86201 0,-28.31371 L 83.362059,236.69237 218.181,298.53392 c 17.42138,8.19619 45.44504,8.19619 62.10813,0 l 134.81853,-61.84155 69.68276,32.0375 c 17.42,8.19618 17.42,20.86339 0,28.31371 l -204.50129,93.88043 c -17.42,8.19618 -45.44504,8.19618 -62.10813,0 z" />
    <path
       style="clip-rule:evenodd;fill:url(#paint2_linear);fill-rule:evenodd;stroke-width:13.81224155"
       inkscape:connector-curvature="0"
       id="path6"
       d="M 218.181,278.41639 13.680127,184.53569 c -17.4204272,-8.19591 -17.4204272,-20.86229 0,-28.31316 L 218.181,62.342239 c 17.42138,-8.195908 45.44504,-8.195908 62.10813,0 l 204.50129,93.880291 c 17.42,8.19591 17.42,20.86228 0,28.31316 l -204.50129,93.8807 c -17.42,7.45033 -45.44504,7.45033 -62.10813,0 z" />
  </g>
  <defs
     id="defs43">
    <linearGradient
       id="paint0_linear"
       x1="18.601999"
       y1="39.038101"
       x2="18.601999"
       y2="14.2235"
       gradientUnits="userSpaceOnUse"
       gradientTransform="matrix(13.812242,0,0,13.812242,-7.8770528,56.195418)">
      <stop
         stop-color="#FCC2B1"
         id="stop28" />
      <stop
         offset="0.8848"
         stop-color="#D9420B"
         id="stop30" />
    </linearGradient>
    <linearGradient
       id="paint1_linear"
       x1="18.601999"
       y1="28.2941"
       x2="18.601999"
       y2="11.9742"
       gradientUnits="userSpaceOnUse"
       gradientTransform="matrix(13.812242,0,0,13.812242,-7.8770528,56.195418)">
      <stop
         stop-color="#DEEDC9"
         id="stop33" />
      <stop
         offset="0.6606"
         stop-color="#8BBA25"
         id="stop35" />
    </linearGradient>
    <linearGradient
       id="paint2_linear"
       x1="18.601999"
       y1="21.685699"
       x2="18.601999"
       y2="-0.52212"
       gradientUnits="userSpaceOnUse"
       gradientTransform="matrix(13.812242,0,0,13.812242,-7.8770528,56.195418)">
      <stop
         stop-color="#C2EBFA"
         id="stop38" />
      <stop
         offset="1"
         stop-color="#26A8DE"
         id="stop40" />
    </linearGradient>
  </defs>
</svg>
